<svg width="24" height="24" viewBox="0 0 24 24" fill="none" xmlns="http://www.w3.org/2000/svg">
<path fill-rule="evenodd" clip-rule="evenodd" d="M15.1402 0.131881C15.0538 0.204493 14.9238 0.333582 14.8515 0.418916C14.7789 0.504251 14.6664 0.657854 14.6008 0.760256C14.5355 0.862658 14.4463 1.02309 14.4025 1.11711C14.359 1.21113 14.2977 1.36443 14.2668 1.45845C14.2355 1.55247 14.2134 1.6316 14.2174 1.63471C14.2214 1.6375 14.3213 1.61919 14.4393 1.59343C14.5573 1.56799 14.7712 1.54658 14.9143 1.54627C15.0574 1.54596 15.2812 1.56427 15.4108 1.58723C15.5407 1.61019 15.6551 1.62229 15.6652 1.6136C15.675 1.60492 15.6612 1.54223 15.6342 1.47397C15.6073 1.4057 15.5457 1.19624 15.4972 1.0085C15.4488 0.820766 15.394 0.516974 15.3753 0.333582C15.3566 0.150189 15.3314 0 15.3195 0C15.3072 0 15.2266 0.0592689 15.1402 0.131881ZM9.27531 0.478185C9.16559 0.569726 9.02554 0.712468 8.96394 0.795321C8.90203 0.878483 8.79722 1.03736 8.73102 1.14814C8.66482 1.25892 8.57196 1.44759 8.52507 1.56706C8.47788 1.68653 8.41383 1.87147 8.38226 1.97822C8.351 2.08496 8.33231 2.17216 8.34058 2.17216C8.34886 2.17216 8.46286 2.13523 8.59342 2.09024C8.78098 2.02569 8.90847 2.00552 9.19869 1.99373C9.40096 1.98597 9.64246 1.99342 9.73501 2.0108C9.82757 2.02818 9.90694 2.03686 9.91123 2.02973C9.91552 2.0229 9.89315 1.96456 9.86158 1.90064C9.83002 1.83672 9.76872 1.67939 9.7252 1.55154C9.68169 1.42338 9.62407 1.21393 9.59741 1.08608C9.57074 0.957922 9.54132 0.731087 9.53213 0.581828C9.52294 0.43257 9.50608 0.310619 9.49474 0.311239C9.48371 0.31155 9.38502 0.386644 9.27531 0.478185ZM14.6385 2.09489C14.5288 2.12034 14.3428 2.18799 14.2248 2.24539C14.1068 2.3028 13.9241 2.41451 13.8187 2.49364C13.7133 2.57277 13.545 2.73878 13.4448 2.8626C13.3443 2.98641 13.2186 3.15739 13.165 3.24272C13.1117 3.32806 13.0231 3.4888 12.9683 3.59958C12.9137 3.71036 12.834 3.90616 12.7914 4.03401C12.7491 4.16217 12.6927 4.37163 12.6667 4.49947C12.6403 4.62763 12.6097 4.85788 12.5983 5.01148C12.5861 5.1775 12.5925 5.41023 12.6146 5.58555C12.6348 5.74784 12.6793 5.99206 12.7133 6.12859C12.7473 6.26513 12.8257 6.49538 12.8873 6.6406C12.9489 6.78583 13.063 6.99528 13.1408 7.10606C13.2183 7.21684 13.3768 7.39868 13.4929 7.50946C13.6195 7.6308 13.8018 7.7633 13.949 7.84118C14.0838 7.91256 14.2769 7.99324 14.378 8.02054C14.4791 8.04785 14.6928 8.07143 14.853 8.07299C15.0467 8.07516 15.2058 8.05809 15.3281 8.0224C15.4292 7.99262 15.5809 7.93304 15.6652 7.8899C15.7495 7.84646 15.899 7.74685 15.9974 7.66803C16.0961 7.58952 16.2419 7.44802 16.3219 7.35431C16.4016 7.2606 16.5178 7.11041 16.5794 7.02073C16.6413 6.93105 16.7403 6.76007 16.7991 6.6406C16.858 6.52113 16.9333 6.35015 16.9661 6.26047C16.9989 6.17079 17.0529 5.98585 17.086 5.84931C17.1191 5.71278 17.1614 5.48253 17.1797 5.33731C17.1981 5.19208 17.2131 4.98262 17.2128 4.87184C17.2125 4.76106 17.1917 4.5305 17.1663 4.35983C17.1411 4.18916 17.0844 3.93781 17.0409 3.80128C16.9971 3.66474 16.9128 3.45528 16.8537 3.33582C16.7945 3.21635 16.6876 3.03482 16.6161 2.93242C16.545 2.83001 16.3982 2.66462 16.2904 2.56501C16.1825 2.4654 16.0323 2.34686 15.9563 2.30187C15.8803 2.25687 15.7289 2.18736 15.6192 2.14764C15.4816 2.09737 15.3299 2.071 15.1289 2.062C14.9367 2.05331 14.77 2.06448 14.6385 2.09489ZM9.22934 2.48154C9.14506 2.49395 8.98662 2.53367 8.8769 2.56997C8.76718 2.60628 8.59495 2.68944 8.49381 2.75492C8.39268 2.82039 8.21523 2.96407 8.09939 3.07392C7.98354 3.18376 7.81621 3.37833 7.72764 3.50649C7.63907 3.63433 7.51495 3.8441 7.45152 3.97195C7.38838 4.0998 7.29001 4.34773 7.23331 4.52275C7.17202 4.71141 7.11011 4.99535 7.08069 5.22094C7.04667 5.4816 7.03717 5.70347 7.05004 5.92689C7.06046 6.10594 7.0954 6.37125 7.12758 6.51648C7.15976 6.6617 7.22902 6.89195 7.28143 7.02849C7.33353 7.16502 7.43068 7.36765 7.49657 7.47843C7.56276 7.58921 7.68872 7.76392 7.77668 7.86632C7.86433 7.96872 8.02737 8.12605 8.13831 8.21573C8.24956 8.30572 8.43007 8.42674 8.53978 8.48507C8.6495 8.54341 8.84258 8.62006 8.96884 8.65543C9.10828 8.69453 9.2891 8.71967 9.42854 8.71967C9.55481 8.71936 9.74788 8.70477 9.8576 8.6874C9.9808 8.66754 10.1619 8.60299 10.3326 8.51797C10.5131 8.42798 10.6826 8.31192 10.823 8.18252C10.941 8.07392 11.1086 7.88152 11.1956 7.75492C11.2827 7.62831 11.4096 7.40644 11.4779 7.26122C11.5465 7.11599 11.636 6.87892 11.6771 6.73369C11.7185 6.58847 11.7687 6.35139 11.789 6.20617C11.8095 6.06094 11.826 5.75405 11.8264 5.52349C11.8267 5.21008 11.8095 5.02265 11.7592 4.77875C11.7218 4.5997 11.6633 4.36914 11.6284 4.26674C11.5937 4.16434 11.5174 3.98281 11.4586 3.86334C11.4001 3.74387 11.2931 3.5552 11.2208 3.44442C11.1484 3.33364 11.0087 3.16453 10.91 3.06895C10.8116 2.97338 10.6415 2.83684 10.5318 2.76516C10.4221 2.69379 10.2603 2.60783 10.1717 2.57432C10.0832 2.54081 9.89008 2.49953 9.74267 2.48278C9.59526 2.46571 9.45398 2.45361 9.42854 2.45547C9.40311 2.45764 9.31362 2.46943 9.22934 2.48154ZM3.63231 3.90244C3.53975 4.00019 3.42912 4.12927 3.38713 4.18916C3.34484 4.24905 3.2673 4.37473 3.2152 4.46844C3.1628 4.56216 3.08434 4.74741 3.04082 4.8796C2.99301 5.02607 2.95317 5.2377 2.93907 5.42016C2.92406 5.61751 2.92651 5.71557 2.94674 5.70595C2.96359 5.69819 3.09445 5.63303 3.23788 5.56135C3.38131 5.48967 3.60871 5.40278 3.74355 5.36834C3.8784 5.33389 4.09569 5.29541 4.22655 5.28269C4.35741 5.26997 4.46406 5.25632 4.46406 5.25197C4.46376 5.24763 4.41625 5.18494 4.35864 5.11233C4.30071 5.03972 4.19805 4.86191 4.13062 4.71669C4.06289 4.57146 3.97065 4.30615 3.9256 4.1271C3.88024 3.94774 3.83366 3.7839 3.82201 3.7628C3.80791 3.73673 3.74601 3.78235 3.63231 3.90244ZM20.6606 4.09266C20.5595 4.14045 20.401 4.24223 20.3082 4.31918C20.2153 4.39583 20.0783 4.54105 20.0035 4.6419C19.9288 4.74275 19.8289 4.90908 19.7814 5.01148C19.7342 5.11388 19.6952 5.21504 19.6952 5.23646C19.6952 5.265 19.7752 5.27524 19.994 5.27493C20.1936 5.27462 20.3741 5.29541 20.538 5.33731C20.6729 5.37175 20.797 5.39968 20.8138 5.39937C20.8338 5.39906 20.8356 5.33017 20.8197 5.20511C20.8062 5.09868 20.8034 4.89294 20.8138 4.74772C20.8243 4.6025 20.8463 4.40017 20.8632 4.29777C20.88 4.19537 20.8966 4.08707 20.9 4.05728C20.9033 4.02749 20.8923 4.0036 20.8754 4.00453C20.8583 4.00515 20.7617 4.04487 20.6606 4.09266ZM4.0347 5.90021C3.92498 5.91696 3.75949 5.95823 3.66694 5.99144C3.57438 6.02495 3.42299 6.09725 3.33105 6.15249C3.23911 6.20772 3.0586 6.35729 2.93019 6.48545C2.80147 6.61329 2.64057 6.80196 2.57284 6.90436C2.50512 7.00677 2.40796 7.17433 2.35709 7.27673C2.30652 7.37914 2.23021 7.56067 2.18792 7.68013C2.14563 7.7996 2.08617 8.01589 2.05614 8.16111C2.01722 8.34761 2.00097 8.56575 2.00006 8.90585C1.99914 9.32849 2.00894 9.42624 2.08158 9.71266C2.12693 9.8917 2.21428 10.157 2.27588 10.3022C2.33717 10.4475 2.46374 10.6845 2.55691 10.8298C2.65008 10.975 2.80331 11.1754 2.8977 11.2757C2.99209 11.3756 3.15207 11.5174 3.2532 11.5903C3.35434 11.6633 3.53362 11.7722 3.65161 11.8324C3.7696 11.8926 3.94889 11.967 4.05002 11.9981C4.18548 12.0397 4.33473 12.0542 4.61699 12.0542C4.94951 12.0542 5.03225 12.0431 5.24525 11.9717C5.3801 11.9261 5.59401 11.82 5.72028 11.7356C5.84685 11.6512 6.04483 11.4792 6.16036 11.3533C6.2759 11.2276 6.42699 11.0268 6.49564 10.9073C6.5646 10.7879 6.66634 10.5576 6.72181 10.3953C6.77728 10.233 6.84348 9.97487 6.86923 9.82126C6.89497 9.66766 6.91581 9.3918 6.91581 9.2084C6.9155 9.02501 6.9011 8.76652 6.88332 8.63433C6.86555 8.50214 6.81651 8.26134 6.77453 8.09905C6.73223 7.93676 6.62344 7.65066 6.53303 7.46292C6.44232 7.27518 6.31084 7.04462 6.24097 6.95091C6.17109 6.8572 6.03594 6.69863 5.94001 6.59902C5.8444 6.49941 5.6835 6.35729 5.58236 6.28313C5.48123 6.20927 5.32248 6.11401 5.22993 6.07212C5.13737 6.02991 4.97862 5.97406 4.87749 5.94799C4.77635 5.92193 4.59033 5.89338 4.46376 5.885C4.33749 5.87662 4.14442 5.88345 4.0347 5.90021ZM19.4041 5.95265C19.303 5.98368 19.1583 6.04078 19.0823 6.08018C19.0063 6.11959 18.8491 6.22324 18.7323 6.31074C18.6159 6.39825 18.4451 6.55371 18.3535 6.65612C18.2619 6.75852 18.1169 6.94688 18.0311 7.07503C17.9456 7.20288 17.8239 7.41948 17.7608 7.55601C17.698 7.69255 17.6116 7.90883 17.5693 8.03699C17.5267 8.16484 17.4703 8.3954 17.4439 8.549C17.4176 8.7026 17.3961 8.96791 17.3961 9.13858C17.3961 9.30925 17.4166 9.5606 17.4418 9.69714C17.4669 9.83368 17.523 10.05 17.5659 10.1781C17.6091 10.306 17.6949 10.5018 17.7571 10.6125C17.8193 10.7233 17.9533 10.903 18.0547 11.0113C18.1565 11.1196 18.3223 11.2605 18.4234 11.3244C18.5245 11.3883 18.69 11.4727 18.7912 11.5121C18.9288 11.5652 19.0599 11.5869 19.3121 11.5975C19.5592 11.6077 19.7066 11.5981 19.8638 11.5605C19.9818 11.5326 20.1749 11.4619 20.2928 11.4035C20.4108 11.3452 20.5969 11.2288 20.7066 11.145C20.8163 11.0609 20.9971 10.8897 21.1084 10.7637C21.2199 10.638 21.3731 10.4372 21.4492 10.3178C21.5255 10.1983 21.6189 10.0307 21.6569 9.94539C21.6952 9.86005 21.7602 9.69931 21.8016 9.58853C21.843 9.47775 21.904 9.24719 21.9371 9.07652C21.9738 8.88754 21.9983 8.62658 21.9999 8.40936C22.0017 8.18811 21.9827 7.94638 21.9499 7.77323C21.9205 7.61962 21.8571 7.38907 21.8086 7.26122C21.7602 7.13306 21.6667 6.9447 21.6012 6.8423C21.5353 6.7399 21.421 6.58785 21.3468 6.50469C21.2729 6.42121 21.1157 6.28809 20.9977 6.20834C20.8797 6.12859 20.6937 6.03085 20.584 5.99113C20.424 5.9331 20.3066 5.91665 19.9864 5.90796C19.6673 5.89896 19.5512 5.90796 19.4041 5.95265ZM13.5199 8.80004C13.4525 8.80655 13.2732 8.82734 13.1215 8.84627C12.9698 8.8652 12.7078 8.90771 12.5392 8.94061C12.3706 8.9735 12.081 9.04394 11.8956 9.09669C11.7102 9.14976 11.3587 9.2624 11.1141 9.3468C10.8696 9.4312 10.5456 9.55378 10.3939 9.61925C10.2422 9.68473 9.9664 9.81164 9.78098 9.90101C9.59557 9.99069 9.27837 10.1573 9.0761 10.2718C8.87384 10.3863 8.5499 10.5818 8.3559 10.7069C8.16191 10.8316 7.85176 11.0457 7.66635 11.1823C7.48094 11.3191 7.23975 11.5003 7.13003 11.5854C7.02031 11.6704 6.79291 11.86 6.62436 12.0065C6.45611 12.1529 6.1527 12.4403 5.95013 12.6454C5.74786 12.8505 5.45825 13.1689 5.30654 13.3532C5.15484 13.5375 4.92683 13.8444 4.80026 14.0356C4.67338 14.2264 4.4705 14.5851 4.34975 14.8327C4.22869 15.0804 4.07975 15.4363 4.01876 15.624C3.95778 15.8118 3.8735 16.1258 3.83182 16.3222C3.77635 16.5813 3.7506 16.8193 3.73742 17.1911C3.72578 17.5188 3.73283 17.8148 3.75673 18.0134C3.77727 18.1841 3.8263 18.4705 3.86614 18.6495C3.90568 18.8286 3.97555 19.0799 4.02121 19.2081C4.06688 19.3359 4.16893 19.5805 4.248 19.7511C4.32707 19.9218 4.46774 20.1803 4.5606 20.3252C4.65346 20.4701 4.81742 20.7007 4.92499 20.8372C5.03256 20.9737 5.22472 21.1956 5.35159 21.33C5.47847 21.4647 5.69974 21.6757 5.84286 21.7989C5.98598 21.9221 6.24127 22.1238 6.40983 22.2473C6.57839 22.3708 6.82663 22.5393 6.96147 22.6212C7.09632 22.7034 7.31023 22.8257 7.4365 22.893C7.56307 22.9603 7.78373 23.0677 7.92685 23.1319C8.06997 23.1959 8.27683 23.2824 8.38655 23.3246C8.49627 23.3665 8.72367 23.4478 8.89222 23.5056C9.06078 23.563 9.3366 23.6455 9.50516 23.6889C9.67372 23.7327 9.94954 23.796 10.1181 23.8298C10.2867 23.8637 10.6038 23.9155 10.823 23.9446C11.1135 23.9834 11.4577 23.9983 12.0948 23.9999C12.667 24.0014 13.0633 23.9884 13.2441 23.9617C13.3958 23.9394 13.7197 23.8804 13.9643 23.8308C14.2088 23.7811 14.5879 23.6827 14.8071 23.6123C15.0262 23.5419 15.3918 23.3988 15.6192 23.2945C15.8466 23.1906 16.1503 23.0367 16.2934 22.9529C16.4366 22.8694 16.6158 22.758 16.6918 22.7059C16.7678 22.6538 16.9539 22.5098 17.1056 22.386C17.2573 22.2621 17.5 22.0375 17.645 21.887C17.7899 21.7362 17.9946 21.4941 18.0998 21.3492C18.2049 21.2043 18.379 20.9039 18.4865 20.6821C18.6067 20.4344 18.7112 20.1648 18.7568 19.9839C18.7979 19.8216 18.8485 19.5702 18.8693 19.4253C18.8929 19.2615 18.9006 19.0089 18.8901 18.7581C18.8782 18.4782 18.85 18.2644 18.7979 18.06C18.7565 17.8977 18.6753 17.6603 18.6174 17.5324C18.5595 17.4043 18.4577 17.2162 18.3912 17.1141C18.3247 17.012 18.1874 16.8392 18.0863 16.7297C17.9851 16.6204 17.8264 16.4715 17.7338 16.3989C17.6413 16.3263 17.4687 16.2149 17.3508 16.1512C17.2328 16.0876 17.0188 15.9967 16.8757 15.9489C16.7326 15.9014 16.4911 15.8453 16.3394 15.8245C16.1678 15.8009 15.9244 15.7938 15.6958 15.8056C15.4936 15.8161 15.2039 15.8533 15.0522 15.8881C14.9005 15.9229 14.6799 15.9871 14.5619 16.0305C14.4439 16.0743 14.2024 16.1854 14.0256 16.2775C13.8487 16.37 13.6075 16.519 13.4899 16.609C13.3725 16.6986 13.1877 16.8628 13.0795 16.9739C12.9713 17.085 12.8316 17.2525 12.769 17.3462C12.7062 17.44 12.6256 17.5762 12.5895 17.6488C12.5533 17.7214 12.5236 17.7912 12.5233 17.8039C12.5233 17.8167 12.5956 17.8387 12.6842 17.8524C12.773 17.8663 12.9456 17.9116 13.0679 17.9532C13.1901 17.9948 13.3624 18.0758 13.4509 18.1332C13.5395 18.1906 13.6603 18.2849 13.7191 18.3433C13.7779 18.4013 13.8607 18.5186 13.9027 18.6036C13.96 18.72 13.9817 18.8196 13.9897 19.0064C13.9983 19.2003 13.986 19.2987 13.9339 19.4563C13.8972 19.5674 13.8153 19.7279 13.7522 19.8132C13.6888 19.8985 13.5625 20.0267 13.4712 20.0984C13.3798 20.1697 13.2294 20.2625 13.1368 20.3044C13.0443 20.3466 12.8613 20.3963 12.7307 20.4152C12.5698 20.4382 12.4215 20.4397 12.271 20.4195C12.1488 20.4034 11.9661 20.3609 11.865 20.3255C11.7638 20.2901 11.5845 20.2029 11.4666 20.1319C11.3486 20.0608 11.1414 19.8902 11.0065 19.7527C10.842 19.5854 10.724 19.4312 10.6492 19.2857C10.5879 19.1662 10.5076 18.9707 10.4705 18.8512C10.4267 18.7091 10.3976 18.5161 10.3869 18.2927C10.3749 18.0447 10.3838 17.8834 10.4197 17.7031C10.4469 17.5666 10.5046 17.3642 10.5475 17.2532C10.5907 17.1421 10.6581 16.9956 10.6976 16.9273C10.7372 16.8591 10.8573 16.6924 10.9646 16.5568C11.0721 16.4215 11.2842 16.2099 11.4359 16.0867C11.5876 15.9632 11.8359 15.7835 11.9876 15.687C12.1393 15.5908 12.4151 15.4366 12.6005 15.3448C12.7859 15.2529 13.055 15.1294 13.1981 15.0704C13.3412 15.0112 13.7001 14.8622 13.9949 14.7393C14.2901 14.6165 14.6348 14.4632 14.7611 14.3986C14.8877 14.3344 15.1151 14.2081 15.2668 14.1178C15.4185 14.0275 15.6391 13.8807 15.7571 13.791C15.8751 13.7017 16.0737 13.526 16.1984 13.4007C16.3229 13.2753 16.4773 13.1028 16.5411 13.0174C16.6048 12.9321 16.7112 12.7574 16.777 12.6296C16.8432 12.5014 16.9257 12.313 16.9606 12.2106C16.9959 12.1082 17.0391 11.9338 17.0572 11.8228C17.0749 11.712 17.0899 11.5199 17.0899 11.3961C17.0903 11.2723 17.0688 11.0628 17.0428 10.9306C17.0164 10.7984 16.9465 10.5852 16.8871 10.4574C16.8276 10.3292 16.7197 10.1409 16.6477 10.0385C16.5754 9.93608 16.4212 9.7623 16.3051 9.65277C16.1892 9.54292 16.0253 9.40855 15.941 9.35425C15.8567 9.29995 15.7016 9.21182 15.5962 9.15844C15.4908 9.10476 15.2977 9.02563 15.1672 8.98281C15.0366 8.93968 14.8193 8.8832 14.6845 8.85713C14.5496 8.83107 14.26 8.80469 14.0409 8.7988C13.8218 8.7929 13.5873 8.79352 13.5199 8.80004Z" fill="black"/>
</svg>
